<?xml version="1.0" standalone="no"?>
<!DOCTYPE svg PUBLIC "-//W3C//DTD SVG 20010904//EN"
 "http://www.w3.org/TR/2001/REC-SVG-20010904/DTD/svg10.dtd">
<svg version="1.0" xmlns="http://www.w3.org/2000/svg"
 width="550.000000pt" height="550.000000pt" viewBox="0 0 550.000000 550.000000"
 preserveAspectRatio="xMidYMid meet">
<metadata>
Created by potrace 1.14, written by Peter Selinger 2001-2017
</metadata>
<g transform="translate(0.000000,550.000000) scale(0.100000,-0.100000)"
fill="#000000" stroke="none">
<path d="M1607 4813 c-1 -1 -36 -3 -77 -4 -213 -7 -398 -143 -468 -344 -26
-74 -31 -113 -32 -240 l0 -101 -166 1 c-91 0 -168 -2 -172 -5 -4 -3 -7 -80 -7
-173 l0 -168 345 3 345 3 0 270 c1 286 6 324 48 363 58 54 -6 52 1329 52 1181
0 1235 -1 1274 -19 43 -20 75 -56 90 -106 6 -19 10 -630 9 -1610 -1 -1723 3
-1596 -57 -1657 -15 -15 -44 -32 -66 -38 -28 -7 -422 -9 -1274 -8 l-1234 3
-43 28 c-59 39 -74 79 -75 205 -1 60 -5 102 -11 103 -31 4 -312 4 -323 1 -10
-3 -13 -32 -12 -111 3 -246 77 -389 261 -502 119 -74 46 -70 1451 -71 928 0
1272 3 1315 12 99 20 181 66 259 144 68 69 83 93 128 201 21 50 21 55 23 1680
3 1797 7 1679 -59 1809 -42 83 -145 183 -228 223 -67 33 -96 41 -167 50 -37 4
-2402 11 -2406 6z"/>
<path d="M2584 3759 c-233 -59 -413 -230 -490 -466 -25 -76 -29 -104 -28 -198
0 -163 39 -278 139 -413 25 -35 45 -65 43 -66 -2 -2 -37 -26 -79 -54 -140 -96
-268 -241 -344 -392 -33 -65 -74 -181 -81 -230 -3 -19 -7 -42 -10 -50 -3 -8
-7 -49 -10 -92 l-6 -78 171 0 c94 0 171 3 172 8 0 4 2 30 5 57 14 159 92 318
213 434 265 252 688 248 951 -10 118 -116 190 -267 204 -428 2 -29 7 -55 9
-58 4 -4 197 -6 311 -4 l29 1 -7 73 c-17 198 -67 340 -169 491 -75 112 -177
214 -282 283 -38 25 -71 47 -73 49 -2 1 18 31 43 66 107 144 141 255 138 438
-4 263 -181 514 -432 613 -117 47 -293 58 -417 26z m312 -355 c132 -62 202
-185 192 -337 -6 -90 -34 -154 -94 -214 -118 -117 -298 -134 -438 -42 -197
131 -198 430 -2 564 99 67 236 79 342 29z"/>
<path d="M1028 3266 l-3 -171 -162 0 c-89 -1 -165 -4 -168 -7 -6 -5 -8 -168
-6 -305 l1 -33 343 0 342 0 -1 333 c-1 182 -2 337 -3 343 -1 7 -56 11 -171 11
l-170 0 -2 -171z"/>
<path d="M1042 2402 c-9 -3 -12 -54 -12 -172 l0 -167 -165 0 c-90 1 -168 -2
-171 -6 -6 -5 -9 -243 -5 -320 1 -16 22 -17 344 -15 l342 3 0 340 0 340 -161
1 c-89 0 -166 -2 -172 -4z"/>
</g>
</svg>
